<?xml version="1.0" encoding="utf-8"?>
<!-- Generator: Adobe Illustrator 23.0.1, SVG Export Plug-In . SVG Version: 6.00 Build 0)  -->
<svg version="1.1" id="Capa_1" xmlns="http://www.w3.org/2000/svg" xmlns:xlink="http://www.w3.org/1999/xlink" x="0px" y="0px"
	 viewBox="0 0 283.46 283.46" style="enable-background:new 0 0 283.46 283.46;" xml:space="preserve">
<style type="text/css">
	.st0{fill:#2ab863;}
	.st1{fill-rule:evenodd;clip-rule:evenodd;fill:#FFFFFF;}
</style>
<path class="st0" d="M141.73,283.46L141.73,283.46C63.46,283.46,0,220.01,0,141.73v0C0,63.46,63.46,0,141.73,0h0
	c78.28,0,141.73,63.46,141.73,141.73v0C283.46,220.01,220.01,283.46,141.73,283.46z"/>
<path class="st1" d="M74.11,144.21H57.2l78.55-78.55c3.3-3.3,8.65-3.3,11.95,0l78.55,78.55h-16.91v67.62c0,4.67-3.78,8.45-8.45,8.45
	H82.56c-4.67,0-8.45-3.78-8.45-8.45V144.21z M91.01,203.38h33.81v-42.26h33.81v42.26h33.81V134.3l-50.72-50.72L91.01,134.3V203.38z"
	/>
</svg>
